<svg width="56" height="50" viewBox="0 0 56 50" fill="none" xmlns="http://www.w3.org/2000/svg">
<path d="M40.4274 17.9547L40.7038 17.0617C40.2394 15.9886 39.1717 15.2376 37.9279 15.2376H35.2826C33.7161 15.2376 32.428 16.4288 32.2744 17.9547H40.4274Z" fill="#FAC600"/>
<path d="M35.5907 17.9548V13.0339C35.5907 12.6958 35.3166 12.4217 34.9785 12.4217H27.5102C27.1722 12.4217 26.8981 12.6958 26.8981 13.0339V17.9548H35.5907Z" fill="#FE9901"/>
<path d="M29.9167 17.9548V13.0339C29.9167 12.6958 30.1908 12.4217 30.5289 12.4217H27.5102C27.1722 12.4217 26.8981 12.6958 26.8981 13.0339V17.9548H29.9167Z" fill="#FB8801"/>
<path d="M15.8878 17.9547H23.4164C23.1852 15.9431 21.4774 14.3806 19.4038 14.3806C17.6567 14.3806 16.1689 15.4895 15.6053 17.0419L15.8878 17.9547Z" fill="#80D261"/>
<path d="M15.8878 17.9547H17.8553C18.0386 16.36 19.15 15.0482 20.6361 14.5726C20.2476 14.4483 19.8336 14.3806 19.4039 14.3806C17.6568 14.3806 16.169 15.4895 15.6054 17.0419L15.8878 17.9547Z" fill="#68CA44"/>
<path d="M28.5531 17.9547C28.0418 16.3097 26.5076 15.1151 24.6944 15.1151C22.8812 15.1151 21.3469 16.3096 20.8356 17.9547H28.5531Z" fill="#00A7D3"/>
<path d="M23.5884 17.9547C23.9635 16.7483 24.8883 15.7841 26.0704 15.3558C25.6409 15.2002 25.1776 15.1151 24.6944 15.1151C22.8811 15.1151 21.3468 16.3096 20.8355 17.9547H23.5884Z" fill="#0096D3"/>
<path d="M14.869 2.96664C15.1244 2.96664 15.3649 3.03117 15.5756 3.14416C15.787 2.89992 15.9576 2.5882 16.0567 2.22967C16.3331 1.22999 15.9551 0.253268 15.2126 0.0479714C14.47 -0.157325 13.644 0.486565 13.3676 1.48625C13.2184 2.02602 13.2613 2.55802 13.448 2.96664H14.869Z" fill="#D8ECFE"/>
<path d="M12.888 2.96664H13.7038C13.8918 2.40336 13.6746 1.64987 13.1037 1.07894C12.3703 0.345577 11.3342 0.192671 10.7894 0.737468C10.2446 1.28227 10.3975 2.31837 11.1309 3.05173C11.3194 3.2403 11.528 3.3897 11.743 3.49952C12.0185 3.17412 12.4293 2.96664 12.888 2.96664Z" fill="#C4E2FF"/>
<path d="M12.888 6.07655H14.8691C15.7544 6.07655 16.4787 5.35226 16.4787 4.46698C16.4787 3.5817 15.7544 2.85742 14.8691 2.85742H12.888C12.0027 2.85742 11.2784 3.5817 11.2784 4.46698C11.2783 5.35226 12.0027 6.07655 12.888 6.07655Z" fill="#5A5A5A"/>
<path d="M13.1249 4.46679C13.1249 3.58151 13.8492 2.85712 14.7346 2.85712H12.888C12.0027 2.85712 11.2784 3.58151 11.2784 4.46679C11.2784 5.35207 12.0027 6.07646 12.888 6.07646H14.7346C13.8493 6.07646 13.1249 5.35218 13.1249 4.46679Z" fill="#444444"/>
<path d="M46.0362 22.712C46.256 22.5855 46.51 22.512 46.7814 22.512H48.2327C48.3937 22.1134 48.4237 21.6102 48.2828 21.1004C48.0064 20.1008 47.1804 19.4569 46.4378 19.6622C45.6953 19.8675 45.3173 20.8442 45.5937 21.8439C45.6866 22.1803 45.8428 22.475 46.0362 22.712Z" fill="#D8ECFE"/>
<path d="M50.8609 20.3518C50.3161 19.807 49.28 19.9599 48.5467 20.6933C47.9989 21.241 47.7754 21.9575 47.9241 22.5122H48.7624C49.2433 22.5122 49.6711 22.7405 49.9458 23.0936C50.1472 22.9859 50.3423 22.8434 50.5196 22.6661C51.2528 21.9327 51.4057 20.8965 50.8609 20.3518Z" fill="#C4E2FF"/>
<path d="M48.7625 25.622H46.7814C45.8962 25.622 45.1719 24.8977 45.1719 24.0125C45.1719 23.1272 45.8962 22.4029 46.7814 22.4029H48.7625C49.6478 22.4029 50.3721 23.1272 50.3721 24.0125C50.3721 24.8976 49.6478 25.622 48.7625 25.622Z" fill="#5A5A5A"/>
<path d="M47.0311 24.0123C47.0311 23.127 47.7554 22.4026 48.6408 22.4026H46.7814C45.8961 22.4026 45.1718 23.1269 45.1718 24.0123C45.1718 24.8976 45.896 25.6219 46.7814 25.6219H48.6408C47.7555 25.622 47.0311 24.8976 47.0311 24.0123Z" fill="#444444"/>
<path d="M55.6303 26.1833C55.2519 25.9346 54.7432 26.0396 54.4942 26.4181L50.7934 32.0475H41.6625V40.9352H44.7117C44.989 40.9352 45.2146 41.1608 45.2146 41.438V48.4591H52.0561V33.1132L55.865 27.3194C56.1139 26.9407 56.0088 26.4321 55.6303 26.1833Z" fill="#FFE5C2"/>
<path d="M44.3539 40.8257V32.8677C44.3539 32.4146 44.721 32.0474 45.1742 32.0474H41.6625V40.8257H44.3539Z" fill="#FED2A4"/>
<path d="M32.9454 48.459V41.4379C32.9454 41.1606 33.171 40.9351 33.4482 40.9351H41.7719V18.7899L44.5772 9.72603C44.7112 9.29323 44.4689 8.83386 44.0361 8.69987C43.6028 8.56589 43.1438 8.80815 43.0099 9.24095L40.3468 17.8455H15.9684L13.3054 9.24095C13.1714 8.80815 12.7118 8.56589 12.2791 8.69987C11.8463 8.83386 11.604 9.29323 11.738 9.72603L14.5433 18.7899V48.459H32.9454Z" fill="#FFB392"/>
<path d="M14.5433 18.7899V26.6748H16.999C17.2515 26.6748 17.4094 26.9482 17.2831 27.167L15.3878 30.4498C16.7419 30.4603 18.0274 30.8309 19.139 31.4822V17.8455H15.9684L13.3054 9.24095C13.1714 8.80815 12.7118 8.56589 12.2791 8.69987C11.8463 8.83386 11.604 9.29323 11.738 9.72603L14.5433 18.7899Z" fill="#FFA381"/>
<path d="M13.5064 30.5579C13.5079 30.5579 13.5093 30.5578 13.5108 30.5578H15.3253L17.2831 27.1669C17.4094 26.9481 17.2515 26.6747 16.9989 26.6747H11.8327C11.5802 26.6747 11.4222 26.9481 11.5485 27.1669L13.5064 30.5579Z" fill="#838383"/>
<path d="M13.5063 30.5579C13.5078 30.5579 13.5093 30.5578 13.5108 30.5578H15.3253L15.541 30.1842L13.799 27.1669C13.6727 26.9481 13.8306 26.6747 14.0832 26.6747H11.8327C11.58 26.6747 11.4222 26.9481 11.5485 27.1669L13.5063 30.5579Z" fill="#5A5A5A"/>
<path d="M4.46584 48.459H18.7414L18.5822 48.2775C18.0735 47.6973 17.8891 46.9071 18.089 46.1637L20.3336 37.8177C20.6538 36.6276 21.2995 35.591 22.1579 34.7915C20.9347 32.1772 18.2922 30.4485 15.3288 30.4485H13.5108C10.1001 30.4485 7.11392 32.7377 6.2281 36.0314L3.63667 45.6664C3.34956 46.734 3.72253 47.79 4.46584 48.459Z" fill="#5A5A5A"/>
<path d="M4.46585 48.459H8.16119C7.41788 47.7899 7.0448 46.734 7.33202 45.6664L9.92344 36.0313C10.7269 33.0437 13.2586 30.8828 16.2675 30.5068C15.9591 30.4683 15.6457 30.4484 15.3286 30.4484H13.5107C10.1 30.4484 7.11381 32.7375 6.22799 36.0313L3.63667 45.6664C3.34956 46.734 3.72253 47.7899 4.46585 48.459Z" fill="#444444"/>
<path d="M26.5409 33.0627H28.0996L29.7659 30.1768C29.8922 29.958 29.7342 29.6846 29.4817 29.6846H25.1589C24.9063 29.6846 24.7484 29.958 24.8747 30.1768L26.5409 33.0627Z" fill="#838383"/>
<path d="M26.5409 33.0627H28.0996L28.3291 32.6653L26.8923 30.1768C26.766 29.958 26.9239 29.6846 27.1765 29.6846H25.1588C24.9062 29.6846 24.7483 29.958 24.8747 30.1768L26.5409 33.0627Z" fill="#5A5A5A"/>
<path d="M32.9454 48.459V41.4379C32.9454 41.1606 33.171 40.9351 33.4482 40.9351H35.2701L34.4173 37.7808C33.647 34.9319 31.0623 32.9533 28.1111 32.9533H26.5365C23.5821 32.9533 20.9954 34.9362 20.2282 37.7892L17.9835 46.1352C17.748 47.0108 18.0251 47.8773 18.6019 48.459H32.9454Z" fill="#5A5A5A"/>
<path d="M18.6017 48.459H22.2492C21.6725 47.8773 21.3953 47.0108 21.6308 46.1352L23.8755 37.7892C24.5515 35.2757 26.6398 33.4384 29.1474 33.0365C28.8087 32.9823 28.4626 32.9533 28.111 32.9533H26.5363C23.582 32.9533 20.9953 34.9362 20.228 37.7892L17.9833 46.1352C17.7478 47.0108 18.0251 47.8773 18.6017 48.459Z" fill="#444444"/>
<path d="M45.3239 48.459V41.4379C45.3239 41.0998 45.0498 40.8257 44.7117 40.8257H33.448C33.11 40.8257 32.8359 41.0998 32.8359 41.4379V48.459H45.3239Z" fill="#FD4755"/>
<path d="M36.0745 48.459V41.4379C36.0745 41.0998 36.3486 40.8257 36.6867 40.8257H33.4482C33.1101 40.8257 32.836 41.0998 32.836 41.4379V48.459H36.0745Z" fill="#FB2B3A"/>
<path d="M53.2207 49.9903H1.55475C1.10161 49.9903 0.734436 49.623 0.734436 49.17C0.734436 48.717 1.10161 48.3497 1.55475 48.3497H53.2207C53.6738 48.3497 54.041 48.717 54.041 49.17C54.041 49.623 53.6738 49.9903 53.2207 49.9903Z" fill="#838383"/>
<path d="M10.6148 22.7844C10.1617 22.7844 9.79453 22.4172 9.79453 21.9641V21.5266C9.79453 21.0736 10.1617 20.7063 10.6148 20.7063C11.068 20.7063 11.4352 21.0736 11.4352 21.5266V21.9641C11.4352 22.4172 11.0679 22.7844 10.6148 22.7844ZM10.6148 19.6126C10.1617 19.6126 9.79453 19.2453 9.79453 18.7922V18.3547C9.79453 17.9017 10.1617 17.5344 10.6148 17.5344C11.068 17.5344 11.4352 17.9017 11.4352 18.3547V18.7922C11.4352 19.2453 11.0679 19.6126 10.6148 19.6126ZM10.1812 16.5104C9.88291 16.5104 9.59536 16.3472 9.45011 16.0633C9.39783 15.9612 9.33909 15.8606 9.27566 15.7644C9.02606 15.3863 9.13019 14.8775 9.5083 14.6279C9.88608 14.3782 10.3951 14.4823 10.6448 14.8604C10.7416 15.0071 10.8312 15.1604 10.9109 15.3164C11.1172 15.7198 10.9574 16.2139 10.5539 16.4202C10.4344 16.4814 10.3068 16.5104 10.1812 16.5104ZM7.81834 14.5216C7.73817 14.5216 7.65658 14.5098 7.57575 14.4847C7.46539 14.4506 7.35219 14.4224 7.2392 14.4006C6.79437 14.3152 6.503 13.8852 6.58842 13.4403C6.67384 12.9954 7.10248 12.704 7.54873 12.7894C7.72067 12.8224 7.89283 12.8654 8.0605 12.9173C8.4933 13.0512 8.73567 13.5105 8.6018 13.9433C8.49297 14.2955 8.16867 14.5216 7.81834 14.5216ZM4.66791 14.3011C4.63028 14.3011 4.59233 14.2985 4.55394 14.2932C4.38331 14.2695 4.21203 14.237 4.04469 14.1966C3.60434 14.0903 3.33353 13.6471 3.43995 13.2067C3.54627 12.7663 3.98945 12.4954 4.42991 12.6018C4.54486 12.6296 4.66266 12.6519 4.7798 12.6682C5.22856 12.7306 5.54181 13.1449 5.47936 13.5936C5.42227 14.0039 5.07073 14.3011 4.66791 14.3011ZM1.93419 12.8272C1.70658 12.8272 1.48017 12.733 1.31797 12.5487C1.20433 12.4195 1.09594 12.2836 0.99575 12.1444C0.730844 11.7768 0.814188 11.2642 1.1818 10.9994C1.5493 10.7346 2.06194 10.8178 2.32684 11.1854C2.39608 11.2816 2.471 11.3756 2.54975 11.465C2.849 11.8052 2.81597 12.3235 2.4757 12.6227C2.31984 12.7598 2.12658 12.8272 1.93419 12.8272ZM0.820422 9.92904C0.371875 9.92904 0.00579687 9.56821 0.0004375 9.11846L0 9.05492C0.000109375 8.90343 0.0065625 8.75151 0.0191406 8.60265C0.0574219 8.15126 0.455 7.81504 0.905625 7.85442C1.35712 7.89259 1.69203 8.28951 1.65397 8.7409C1.64522 8.84437 1.64073 8.95024 1.64062 9.05557L1.64084 9.09888C1.64631 9.55192 1.28341 9.92357 0.830484 9.92893C0.827203 9.92904 0.823703 9.92904 0.820422 9.92904ZM1.86331 7.00501C1.67748 7.00501 1.49045 6.94212 1.33689 6.81349C0.989625 6.52245 0.944016 6.0051 1.23506 5.65784C1.34542 5.52615 1.46366 5.39829 1.58659 5.27787C1.90991 4.96079 2.42933 4.96582 2.74652 5.28957C3.06359 5.6131 3.05845 6.13253 2.73481 6.4496C2.65016 6.53262 2.56856 6.62078 2.49244 6.71167C2.33023 6.90526 2.09759 7.00501 1.86331 7.00501ZM4.5593 5.46578C4.16445 5.46578 3.81653 5.18009 3.75069 4.7777C3.67752 4.33057 3.9807 3.90893 4.42772 3.83576C4.59736 3.80809 4.77006 3.78829 4.94123 3.77713C5.39328 3.74738 5.78364 4.09038 5.81317 4.54243C5.84259 4.99448 5.49992 5.38495 5.04787 5.41437C4.92942 5.42203 4.80988 5.4357 4.69263 5.45495C4.64778 5.46217 4.60316 5.46578 4.5593 5.46578ZM8.16616 5.40649H7.72866C7.27552 5.40649 6.90834 5.03921 6.90834 4.58618C6.90834 4.13315 7.27552 3.76587 7.72866 3.76587H8.16616C8.6193 3.76587 8.98647 4.13315 8.98647 4.58618C8.98647 5.03921 8.6193 5.40649 8.16616 5.40649Z" fill="#C4E2FF"/>
</svg>
